<svg width="24" height="25" viewBox="0 0 24 25" fill="none" xmlns="http://www.w3.org/2000/svg">
<path d="M5 10.5C5 7.73858 7.23858 5.5 10 5.5C12.7614 5.5 15 7.73858 15 10.5C15 13.2614 12.7614 15.5 10 15.5C7.23858 15.5 5 13.2614 5 10.5ZM10 3.5C6.13401 3.5 3 6.63401 3 10.5C3 14.366 6.13401 17.5 10 17.5C11.5723 17.5 13.0236 16.9816 14.1922 16.1064L19.2929 21.2071C19.6834 21.5976 20.3166 21.5976 20.7071 21.2071C21.0976 20.8166 21.0976 20.1834 20.7071 19.7929L15.6064 14.6922C16.4816 13.5236 17 12.0723 17 10.5C17 6.63401 13.866 3.5 10 3.5Z" fill="#212121"/>
</svg>
